<?xml version="1.0" standalone="no"?>
<!DOCTYPE svg PUBLIC "-//W3C//DTD SVG 20010904//EN"
 "http://www.w3.org/TR/2001/REC-SVG-20010904/DTD/svg10.dtd">
<svg version="1.0" xmlns="http://www.w3.org/2000/svg"
 width="512.000000pt" height="512.000000pt" viewBox="0 0 512.000000 512.000000"
 preserveAspectRatio="xMidYMid meet">

<g transform="translate(0.000000,512.000000) scale(0.100000,-0.100000)"
fill="currentcolor" stroke="none">
<path d="M1155 5091 c-40 -24 -71 -60 -84 -94 -6 -16 -11 -103 -11 -203 l0
-174 -318 0 c-262 0 -328 -3 -373 -16 -163 -48 -286 -165 -341 -324 l-23 -65
0 -1625 c0 -1554 1 -1627 18 -1678 11 -29 31 -74 45 -100 36 -65 136 -161 202
-194 122 -61 60 -58 1408 -58 1117 0 1234 1 1228 16 -13 33 -45 213 -52 287
l-7 77 -1179 0 c-1275 0 -1225 -2 -1261 53 -16 24 -17 110 -17 1182 l0 1155
1890 0 1890 0 0 -528 0 -529 98 -6 c53 -4 137 -16 186 -27 50 -11 94 -20 98
-20 5 0 7 449 6 998 -3 987 -4 998 -24 1052 -38 99 -66 143 -128 206 -64 64
-113 94 -205 125 -49 17 -87 19 -378 19 l-323 0 0 163 c0 178 -8 221 -47 268
-45 53 -72 59 -278 59 -206 0 -233 -6 -278 -59 -39 -47 -47 -90 -47 -269 l0
-162 -572 2 -573 3 -5 185 c-6 210 -14 237 -86 277 -37 21 -51 23 -234 23
-173 0 -198 -2 -225 -19z"/>
<path d="M1403 3006 l-28 -24 -3 -168 c-3 -108 0 -182 8 -207 17 -58 48 -67
235 -67 166 0 214 10 234 48 15 28 15 363 0 395 -19 41 -48 47 -239 47 -175 0
-180 -1 -207 -24z"/>
<path d="M2084 3018 c-38 -18 -44 -50 -44 -238 0 -175 1 -180 24 -207 l24 -28
163 -3 c186 -4 221 0 249 30 19 20 20 36 20 209 0 103 -3 195 -6 204 -15 37
-56 45 -236 44 -97 0 -182 -5 -194 -11z"/>
<path d="M2755 3021 c-46 -19 -50 -36 -53 -210 -6 -275 -6 -274 264 -269 235
4 219 -13 219 243 0 258 17 239 -228 242 -100 1 -191 -1 -202 -6z"/>
<path d="M3415 3018 c-42 -24 -44 -36 -45 -234 l0 -191 26 -24 c25 -23 32 -24
187 -27 184 -4 219 0 247 30 19 20 20 36 20 209 0 103 -3 195 -6 204 -15 37
-56 45 -236 45 -111 0 -180 -5 -193 -12z"/>
<path d="M752 2373 c-34 -14 -42 -59 -42 -243 0 -246 -17 -230 243 -230 l194
0 24 26 c24 25 24 28 24 216 l0 190 -28 24 c-28 24 -31 24 -215 23 -103 0
-193 -3 -200 -6z"/>
<path d="M1403 2356 l-28 -24 0 -190 c0 -188 0 -191 24 -216 l24 -26 193 0
c257 0 238 -17 242 216 4 196 1 214 -30 244 -20 19 -35 20 -209 20 -184 0
-188 0 -216 -24z"/>
<path d="M2065 2355 c-25 -24 -25 -26 -25 -215 0 -257 -18 -240 243 -240 256
0 237 -20 237 242 l0 197 -26 20 c-25 20 -40 21 -216 21 -187 0 -189 0 -213
-25z"/>
<path d="M2729 2354 c-24 -25 -24 -28 -24 -214 0 -186 0 -189 24 -214 l24 -26
188 0 c103 0 195 3 204 6 37 15 45 56 45 234 0 173 -5 201 -39 227 -11 9 -73
12 -207 13 l-191 0 -24 -26z"/>
<path d="M3999 1895 c-287 -54 -532 -233 -669 -488 -77 -142 -111 -283 -111
-452 0 -433 272 -789 701 -917 97 -29 319 -36 430 -14 569 116 906 707 713
1252 -108 303 -364 532 -683 609 -93 23 -288 28 -381 10z m586 -591 c44 -20
69 -73 60 -122 -5 -32 -46 -77 -273 -304 -276 -276 -297 -292 -362 -280 -33 7
-298 266 -317 311 -18 43 -9 83 29 121 24 25 38 30 75 30 44 0 49 -3 137 -90
51 -49 96 -90 102 -90 5 0 101 92 214 205 113 112 219 211 235 219 38 20 59
20 100 0z"/>
<path d="M773 1729 c-58 -17 -63 -34 -63 -231 0 -189 6 -218 47 -237 15 -7 93
-11 204 -11 176 0 180 1 204 24 31 31 38 82 33 260 -3 144 -3 146 -31 173
l-27 28 -168 2 c-92 1 -181 -2 -199 -8z"/>
<path d="M1430 1727 c-53 -18 -62 -57 -58 -260 l3 -169 28 -24 c27 -23 32 -24
207 -24 110 0 188 4 203 11 41 19 47 48 47 237 0 200 -4 214 -68 232 -51 14
-318 12 -362 -3z"/>
<path d="M2103 1733 c-13 -2 -32 -16 -43 -30 -18 -24 -20 -40 -20 -212 1 -130
4 -191 13 -202 26 -34 54 -39 237 -39 246 0 230 -17 230 243 l0 194 -26 24
c-25 23 -30 24 -197 26 -95 0 -182 -1 -194 -4z"/>
</g>
</svg>
